<?xml version="1.0" standalone="no"?>
<!DOCTYPE svg PUBLIC "-//W3C//DTD SVG 20010904//EN"
 "http://www.w3.org/TR/2001/REC-SVG-20010904/DTD/svg10.dtd">
<svg version="1.0" xmlns="http://www.w3.org/2000/svg"
 width="2670.000000pt" height="552.000000pt" viewBox="0 0 2670.000000 552.000000"
 preserveAspectRatio="xMidYMid meet">

<g transform="translate(0.000000,552.000000) scale(0.100000,-0.100000)"
fill="#000000" stroke="none">
<path d="M4525 4909 c-111 -12 -260 -44 -390 -86 -544 -174 -946 -596 -1036
-1087 l-12 -66 -467 0 -466 0 -40 57 c-77 112 -181 168 -314 168 -91 0 -157
-22 -225 -73 -178 -134 -204 -393 -55 -555 117 -128 300 -160 457 -80 55 28
134 103 155 148 l11 25 473 0 474 0 5 -27 c48 -238 129 -412 278 -597 334
-419 952 -656 1548 -596 615 63 1136 401 1358 881 299 648 -18 1386 -741 1723
-302 141 -669 201 -1013 165z m393 -240 c356 -39 664 -175 893 -396 241 -232
350 -488 336 -788 -7 -147 -32 -245 -96 -380 -289 -605 -1139 -894 -1874 -638
-423 147 -747 472 -832 835 l-13 58 482 0 483 0 11 -25 c21 -45 100 -120 155
-148 245 -124 525 28 553 302 13 120 -49 256 -151 333 -68 51 -134 73 -225 73
-133 0 -237 -56 -314 -168 l-40 -57 -479 0 -479 0 7 38 c14 78 68 220 112 297
63 110 117 178 215 271 316 298 785 445 1256 393z"/>
<path d="M6800 4043 c0 -483 -3 -1111 -7 -1395 l-6 -518 901 0 902 0 0 120 0
120 -775 0 -775 0 0 1275 0 1275 -120 0 -120 0 0 -877z"/>
<path d="M9020 4043 c0 -483 -3 -1111 -7 -1395 l-6 -518 901 0 902 0 0 120 0
120 -775 0 -775 0 0 1275 0 1275 -120 0 -120 0 0 -877z"/>
<path d="M18225 4909 c-399 -42 -788 -220 -1050 -483 -250 -250 -377 -527
-391 -851 -16 -354 117 -675 391 -950 123 -123 252 -216 410 -294 603 -302
1339 -258 1892 111 209 139 401 362 502 579 299 648 -18 1386 -741 1723 -302
141 -669 201 -1013 165z m393 -240 c356 -39 664 -175 893 -396 241 -232 350
-488 336 -788 -7 -147 -32 -245 -96 -380 -289 -605 -1139 -894 -1874 -638
-345 120 -622 353 -759 639 -77 162 -92 229 -92 424 0 151 3 173 28 255 32
104 77 203 137 295 55 84 233 261 331 328 303 207 708 304 1096 261z"/>
<path d="M20510 3525 l0 -1395 120 0 120 0 0 480 0 480 219 0 219 0 546 -480
546 -480 180 2 180 3 -541 475 -540 475 233 6 c190 5 247 10 310 27 319 86
549 317 635 639 23 84 26 119 27 248 0 161 -16 248 -69 375 -103 246 -304 424
-570 507 l-90 28 -762 3 -763 3 0 -1396z m1578 1123 c101 -37 175 -82 247
-153 123 -121 185 -266 192 -455 12 -297 -119 -527 -371 -646 -127 -60 -163
-63 -818 -64 l-588 0 0 675 0 676 633 -3 632 -3 73 -27z"/>
<path d="M23270 3525 l0 -1395 115 0 115 0 0 1395 0 1395 -115 0 -115 0 0
-1395z"/>
<path d="M1738 4885 c-305 -43 -604 -147 -827 -286 -265 -167 -477 -406 -579
-655 -65 -158 -77 -222 -77 -424 1 -203 12 -267 75 -420 208 -504 759 -868
1440 -950 137 -16 424 -14 560 5 184 25 400 83 545 145 l45 19 -20 50 c-10 28
-27 67 -36 88 -8 21 -20 48 -25 60 l-8 23 -53 -22 c-94 -38 -260 -86 -378
-108 -144 -27 -450 -38 -596 -21 -620 73 -1119 406 -1270 848 -164 480 96 969
661 1243 286 139 634 203 966 180 211 -15 322 -37 517 -102 67 -22 124 -39
126 -37 1 2 21 51 43 109 l40 105 -71 28 c-106 41 -265 85 -395 108 -150 28
-533 36 -683 14z"/>
<path d="M12123 4278 c-139 -343 -387 -956 -553 -1363 -165 -407 -303 -750
-307 -763 l-5 -23 127 3 127 3 101 252 102 253 765 0 765 0 102 -253 101 -252
127 -3 127 -3 -6 23 c-3 13 -255 635 -560 1383 l-554 1360 -103 3 -104 2 -252
-622z m688 -573 c177 -435 324 -798 326 -807 5 -17 -31 -18 -656 -18 -363 0
-661 3 -661 8 0 20 656 1620 662 1614 4 -4 152 -363 329 -797z"/>
<path d="M14160 3515 l0 -1386 808 3 c798 4 808 4 886 26 221 61 390 200 486
397 59 122 74 190 74 335 0 191 -46 326 -163 473 -50 63 -164 161 -237 203
-17 10 -13 17 49 84 75 81 145 209 174 320 24 88 23 281 -1 370 -67 250 -254
445 -511 534 -58 20 -83 20 -812 24 l-753 3 0 -1386z m1486 1133 c85 -26 155
-69 224 -138 105 -105 150 -213 150 -360 0 -241 -179 -457 -414 -499 -38 -7
-267 -11 -633 -11 l-573 0 0 516 0 515 598 -4 c508 -3 605 -6 648 -19z m136
-1259 c89 -19 177 -68 248 -139 271 -271 157 -737 -208 -850 -61 -19 -94 -20
-743 -20 l-679 0 0 510 0 510 665 0 c445 0 682 -4 717 -11z"/>
<path d="M24793 4278 c-139 -343 -387 -956 -553 -1363 -165 -407 -303 -750
-307 -763 l-5 -23 127 3 127 3 101 252 102 253 765 0 765 0 102 -253 101 -252
127 -3 127 -3 -6 23 c-3 13 -255 635 -560 1383 l-554 1360 -103 3 -104 2 -252
-622z m688 -573 c177 -435 324 -798 326 -807 5 -17 -31 -18 -656 -18 -363 0
-661 3 -661 8 0 20 656 1620 662 1614 4 -4 152 -363 329 -797z"/>
<path d="M4983 1058 c-22 -30 -295 -677 -288 -687 3 -6 14 -11 24 -11 14 0 30
29 67 115 l48 115 169 -2 168 -3 48 -110 c37 -88 51 -111 69 -113 16 -2 22 2
22 15 0 33 -286 688 -302 691 -8 2 -19 -3 -25 -10z m92 -248 c36 -85 65 -158
65 -162 0 -5 -63 -8 -140 -8 -77 0 -140 2 -140 4 0 6 128 305 136 318 3 5 8 8
10 6 1 -2 32 -73 69 -158z"/>
<path d="M5583 1056 c-159 -52 -256 -183 -256 -346 0 -143 72 -259 199 -321
126 -62 290 -45 385 40 41 37 43 41 27 56 -15 16 -19 15 -64 -19 -204 -156
-494 -12 -494 244 0 161 120 293 280 307 73 7 146 -15 213 -64 71 -53 111 -24
45 33 -85 71 -236 103 -335 70z"/>
<path d="M6273 1058 c-22 -30 -295 -677 -288 -687 3 -6 14 -11 24 -11 14 0 30
29 67 115 l48 115 169 -2 168 -3 48 -110 c37 -88 51 -111 69 -113 16 -2 22 2
22 15 0 33 -286 688 -302 691 -8 2 -19 -3 -25 -10z m92 -248 c36 -85 65 -158
65 -162 0 -5 -63 -8 -140 -8 -77 0 -140 2 -140 4 0 6 128 305 136 318 3 5 8 8
10 6 1 -2 32 -73 69 -158z"/>
<path d="M6695 1057 c-3 -6 -4 -165 -3 -352 l3 -340 94 -3 c163 -5 274 46 350
159 62 93 76 190 42 298 -36 116 -123 200 -241 235 -67 20 -238 22 -245 3z
m278 -71 c69 -33 130 -101 153 -168 25 -75 16 -191 -19 -250 -58 -99 -146
-149 -274 -156 l-83 -5 0 308 0 308 84 -5 c64 -3 96 -10 139 -32z"/>
<path d="M7305 1058 c-3 -7 -4 -166 -3 -353 l3 -340 185 0 c178 0 185 1 185
20 0 19 -8 20 -157 23 l-158 3 0 139 0 139 118 3 c109 3 117 4 117 23 0 19 -8
20 -117 23 l-118 3 0 139 0 139 158 3 c149 3 157 4 157 23 0 19 -8 20 -183 23
-141 2 -184 0 -187 -10z"/>
<path d="M7822 1058 c-9 -12 -92 -611 -92 -666 0 -24 26 -41 40 -26 5 5 24
132 44 283 20 151 37 276 39 278 2 1 55 -124 119 -280 92 -225 119 -283 135
-285 17 -3 35 34 134 277 63 155 116 281 119 281 3 0 21 -122 39 -270 35 -275
45 -311 75 -279 11 12 7 69 -28 347 -23 183 -47 337 -53 343 -7 7 -18 9 -25 7
-7 -3 -66 -138 -132 -299 -65 -162 -121 -297 -125 -301 -3 -4 -57 120 -120
275 -136 338 -141 348 -169 315z"/>
<path d="M8577 1063 c-4 -3 -7 -161 -7 -350 0 -310 2 -344 16 -350 40 -15 44
15 44 350 0 200 -4 325 -10 338 -11 19 -31 25 -43 12z"/>
<path d="M8983 1056 c-159 -52 -256 -183 -256 -346 0 -143 72 -259 199 -321
126 -62 290 -45 385 40 41 37 43 41 27 56 -15 16 -19 15 -64 -19 -204 -156
-494 -12 -494 244 0 161 120 293 280 307 73 7 146 -15 213 -64 71 -53 111 -24
45 33 -85 71 -236 103 -335 70z"/>
<path d="M9773 1050 c-68 -35 -104 -115 -81 -182 6 -18 23 -50 39 -70 l29 -37
-48 -49 c-38 -37 -52 -60 -61 -100 -17 -71 4 -143 56 -194 96 -93 209 -90 310
7 l53 51 64 -58 c35 -32 71 -58 80 -58 34 0 14 40 -49 98 l-64 59 44 52 c25
29 45 61 45 72 0 35 -37 20 -83 -33 l-45 -52 -78 71 c-44 39 -87 80 -97 91
-19 20 -18 21 21 41 45 23 89 71 98 107 4 14 4 44 1 66 -15 109 -134 169 -234
118z m155 -63 c16 -16 26 -40 29 -69 4 -37 1 -49 -21 -75 -14 -17 -44 -38 -67
-47 -47 -19 -63 -12 -105 45 -43 58 -23 143 40 170 35 15 97 3 124 -24z m-17
-363 c57 -53 107 -99 112 -103 4 -4 -13 -28 -37 -53 -78 -82 -168 -89 -237
-19 -73 73 -73 168 1 235 22 20 44 36 49 36 5 0 55 -43 112 -96z"/>
<path d="M10585 1057 c-3 -6 -4 -165 -3 -352 l3 -340 147 0 146 0 44 30 c82
57 110 163 67 252 -17 35 -36 54 -87 88 -1 1 11 17 28 35 80 86 53 227 -52
279 -38 18 -62 21 -166 21 -89 0 -124 -3 -127 -13z m265 -52 c96 -49 96 -181
0 -230 -19 -10 -59 -15 -120 -15 l-90 0 0 130 0 130 90 0 c61 0 101 -5 120
-15z m36 -321 c51 -37 69 -71 68 -125 -1 -53 -19 -87 -68 -123 -23 -18 -45
-22 -137 -24 l-109 -4 0 152 0 152 109 -4 c92 -2 114 -6 137 -24z"/>
<path d="M11117 1064 c-4 -4 -7 -122 -7 -263 0 -236 2 -260 21 -301 45 -99
117 -145 229 -145 83 0 117 14 169 66 66 65 66 66 66 369 0 268 0 275 -20 275
-19 0 -20 -8 -25 -265 -5 -290 -8 -301 -69 -353 -93 -78 -237 -51 -293 56 -22
40 -23 56 -28 302 -4 224 -7 260 -20 263 -9 1 -19 0 -23 -4z"/>
<path d="M11834 1047 c-143 -69 -150 -228 -12 -298 22 -11 74 -32 117 -46 95
-31 137 -57 156 -93 36 -69 4 -148 -75 -188 -84 -42 -186 -20 -248 54 -20 24
-42 44 -49 44 -22 0 -26 -26 -9 -59 44 -85 187 -133 297 -99 50 14 118 72 135
115 23 54 18 133 -11 175 -28 41 -125 93 -227 122 -32 9 -73 30 -93 47 -30 26
-35 38 -35 73 0 52 21 83 74 107 73 33 155 21 211 -32 52 -49 93 -33 55 21
-52 74 -193 101 -286 57z"/>
<path d="M12287 1063 c-4 -3 -7 -161 -7 -350 0 -310 2 -344 16 -350 40 -15 44
15 44 350 0 200 -4 325 -10 338 -11 19 -31 25 -43 12z"/>
<path d="M12477 1063 c-4 -3 -7 -161 -7 -350 0 -303 2 -344 16 -350 35 -13 39
12 44 302 l5 284 200 -286 c110 -157 208 -291 218 -297 14 -8 20 -8 27 4 11
16 14 658 4 684 -5 13 -38 23 -46 14 -1 -2 -5 -135 -8 -296 l-5 -293 -205 295
c-189 273 -221 311 -243 289z"/>
<path d="M13115 1058 c-3 -7 -4 -166 -3 -353 l3 -340 185 0 c178 0 185 1 185
20 0 19 -8 20 -157 23 l-158 3 0 139 0 139 118 3 c109 3 117 4 117 23 0 19 -8
20 -117 23 l-118 3 0 139 0 139 158 3 c149 3 157 4 157 23 0 19 -8 20 -183 23
-141 2 -184 0 -187 -10z"/>
<path d="M13704 1047 c-143 -69 -150 -228 -12 -298 22 -11 74 -32 117 -46 95
-31 137 -57 156 -93 36 -69 4 -148 -75 -188 -84 -42 -186 -20 -248 54 -20 24
-42 44 -49 44 -22 0 -26 -26 -9 -59 44 -85 187 -133 297 -99 50 14 118 72 135
115 23 54 18 133 -11 175 -28 41 -125 93 -227 122 -32 9 -73 30 -93 47 -30 26
-35 38 -35 73 0 52 21 83 74 107 73 33 155 21 211 -32 52 -49 93 -33 55 21
-52 74 -193 101 -286 57z"/>
<path d="M14254 1047 c-143 -69 -150 -228 -12 -298 22 -11 74 -32 117 -46 95
-31 137 -57 156 -93 36 -69 4 -148 -75 -188 -84 -42 -186 -20 -248 54 -20 24
-42 44 -49 44 -22 0 -26 -26 -9 -59 44 -85 187 -133 297 -99 50 14 118 72 135
115 23 54 18 133 -11 175 -28 41 -125 93 -227 122 -32 9 -73 30 -93 47 -30 26
-35 38 -35 73 0 52 21 83 74 107 73 33 155 21 211 -32 52 -49 93 -33 55 21
-52 74 -193 101 -286 57z"/>
<path d="M14972 1058 c-9 -12 -92 -611 -92 -666 0 -24 26 -41 40 -26 5 5 24
132 44 283 20 151 37 276 39 278 2 1 55 -124 119 -280 92 -225 119 -283 135
-285 17 -3 35 34 134 277 63 155 116 281 119 281 3 0 21 -122 39 -270 35 -275
45 -311 75 -279 11 12 7 69 -28 347 -23 183 -47 337 -53 343 -7 7 -18 9 -25 7
-7 -3 -66 -138 -132 -299 -65 -162 -121 -297 -125 -301 -3 -4 -57 120 -120
275 -136 338 -141 348 -169 315z"/>
<path d="M15953 1058 c-22 -30 -295 -677 -288 -687 3 -6 14 -11 24 -11 14 0
30 29 67 115 l48 115 169 -2 168 -3 48 -110 c37 -88 51 -111 69 -113 16 -2 22
2 22 15 0 33 -286 688 -302 691 -8 2 -19 -3 -25 -10z m92 -248 c36 -85 65
-158 65 -162 0 -5 -63 -8 -140 -8 -77 0 -140 2 -140 4 0 6 128 305 136 318 3
5 8 8 10 6 1 -2 32 -73 69 -158z"/>
<path d="M16378 1064 c-5 -4 -8 -162 -8 -351 0 -310 2 -344 16 -350 35 -13 44
23 44 169 l0 138 63 0 62 0 95 -153 c70 -111 101 -152 115 -152 11 0 21 7 23
15 1 9 -34 73 -78 143 -44 70 -81 132 -82 137 -2 6 15 17 37 25 50 17 112 85
121 132 12 64 -1 131 -33 171 -55 67 -81 77 -233 80 -74 2 -138 0 -142 -4z
m282 -66 c107 -56 106 -204 -3 -257 -34 -17 -62 -21 -135 -21 l-92 0 0 150 0
150 93 0 c77 0 100 -4 137 -22z"/>
<path d="M16915 1057 c-3 -6 -4 -165 -3 -352 3 -323 4 -340 22 -343 10 -2 22
2 27 10 5 7 9 71 10 143 l1 130 55 50 c44 40 56 47 63 35 5 -8 62 -94 127
-190 87 -129 124 -176 141 -178 15 -2 22 2 22 13 0 10 -56 102 -125 207 -69
104 -125 193 -125 197 0 5 59 62 130 127 96 86 130 123 128 138 -2 10 -8 21
-15 23 -6 2 -99 -74 -205 -170 l-193 -175 -5 162 c-3 88 -9 167 -13 174 -11
16 -36 16 -42 -1z"/>
<path d="M17495 1058 c-3 -7 -4 -166 -3 -353 l3 -340 185 0 c178 0 185 1 185
20 0 19 -8 20 -157 23 l-158 3 0 139 0 139 118 3 c109 3 117 4 117 23 0 19 -8
20 -117 23 l-118 3 0 139 0 139 158 3 c149 3 157 4 157 23 0 19 -8 20 -183 23
-141 2 -184 0 -187 -10z"/>
<path d="M17924 1056 c-11 -30 7 -36 106 -36 l100 0 2 -327 c3 -320 3 -328 23
-328 20 0 20 8 23 327 l2 327 103 3 c94 3 102 4 102 23 0 19 -8 20 -228 23
-193 2 -228 0 -233 -12z"/>
<path d="M18584 1047 c-143 -69 -150 -228 -12 -298 22 -11 74 -32 117 -46 95
-31 137 -57 156 -93 36 -69 4 -148 -75 -188 -84 -42 -186 -20 -248 54 -20 24
-42 44 -49 44 -22 0 -26 -26 -9 -59 44 -85 187 -133 297 -99 50 14 118 72 135
115 23 54 18 133 -11 175 -28 41 -125 93 -227 122 -32 9 -73 30 -93 47 -30 26
-35 38 -35 73 0 52 21 83 74 107 73 33 155 21 211 -32 52 -49 93 -33 55 21
-52 74 -193 101 -286 57z"/>
<path d="M19028 1064 c-5 -4 -8 -162 -8 -351 0 -310 2 -344 16 -350 35 -13 44
23 44 168 l0 137 113 3 c127 5 158 16 211 82 29 36 31 44 31 117 0 73 -2 81
-31 117 -56 68 -82 78 -234 81 -74 2 -138 0 -142 -4z m282 -66 c107 -56 106
-204 -3 -257 -34 -17 -62 -21 -135 -21 l-92 0 0 150 0 150 93 0 c77 0 100 -4
137 -22z"/>
<path d="M19693 1058 c-22 -30 -295 -677 -288 -687 3 -6 14 -11 24 -11 14 0
30 29 67 115 l48 115 169 -2 168 -3 48 -110 c37 -88 51 -111 69 -113 16 -2 22
2 22 15 0 33 -286 688 -302 691 -8 2 -19 -3 -25 -10z m92 -248 c36 -85 65
-158 65 -162 0 -5 -63 -8 -140 -8 -77 0 -140 2 -140 4 0 6 128 305 136 318 3
5 8 8 10 6 1 -2 32 -73 69 -158z"/>
<path d="M20283 1056 c-159 -52 -256 -183 -256 -346 0 -143 72 -259 199 -321
126 -62 290 -45 385 40 41 37 43 41 27 56 -15 16 -19 15 -64 -19 -204 -156
-494 -12 -494 244 0 161 120 293 280 307 73 7 146 -15 213 -64 71 -53 111 -24
45 33 -85 71 -236 103 -335 70z"/>
<path d="M20745 1058 c-3 -7 -4 -166 -3 -353 l3 -340 185 0 c178 0 185 1 185
20 0 19 -8 20 -157 23 l-158 3 0 139 0 139 118 3 c109 3 117 4 117 23 0 19 -8
20 -117 23 l-118 3 0 139 0 139 158 3 c149 3 157 4 157 23 0 19 -8 20 -183 23
-141 2 -184 0 -187 -10z"/>
</g>
</svg>
